<?xml version="1.0" encoding="UTF-8"?>
<svg id="logo" xmlns="http://www.w3.org/2000/svg" width="500" height="52" viewBox="0 0 500 52">
  <defs>
    <style>
      .cls-1 {
        fill: #beff00;
        fill-rule: evenodd;
      }
    </style>
  </defs>
  <path class="cls-1" d="M.28,36.77v11.02h0c8.37,2.69,19.67,4.2,32.05,4.2,24.24,0,34.23-5.03,34.23-16.39,0-14.02-19.56-14.93-35.05-15.64-10.16-.47-18.58-.86-18.58-4.81,0-3.1,5.86-4.82,19.67-4.82,9.67,0,19.26,1.45,28.66,4.27l.4-.14V3.99C52.68,1.31,42.94,0,32.33,0,11.09,0,0,5.37,0,15.57c0,14.26,19.67,15.06,35.19,15.69,10.11.41,18.45.75,18.45,4.69,0,3.37-6.13,5.71-20.56,5.71-13.47,0-23.2-1.58-32.39-5.09l-.4.2h0ZM85.8,25.69v-13.91h24.3c8.9,0,13.34,1.45,13.34,6.96s-4.43,6.96-13.34,6.96h-24.3ZM85.8,51.17v-15.15h24.97c16.74,0,25.79-6.13,25.79-17.29S127.37,1.45,110.43,1.45h-37.55v49.73h12.93,0ZM204.57,26.04c0-9.78-8.98-15.63-25.39-15.63s-25.37,5.85-25.37,15.63,8.98,15.63,25.37,15.63,25.39-5.85,25.39-15.63ZM140.87,26.03c0-16.39,14.23-25.97,38.31-25.97s38.31,9.58,38.31,25.96-14.22,25.96-38.31,25.96-38.31-9.57-38.31-25.96ZM236.72,24.65v-12.88h24.57c8.64,0,13.06,1.45,13.06,6.47s-4.41,6.41-13.06,6.41h-24.57,0ZM236.72,34.99h19.73s16.48,16.19,16.48,16.19h15.72l.2-.28-17.76-16.67c10.48-1.86,16.19-7.37,16.19-15.98,0-10.89-9.18-16.81-25.65-16.81h-37.84v49.72h12.93v-16.18h0ZM421.57,1.72l-28.86,32.38v17.08h-12.93v-17.08l-20.08-22.53h-28.47v39.61h-12.93V11.57h-28.86V1.45h76.44l20.35,23.35,20.41-23.35h14.71l.2.27h0ZM481.19,15.44l8.07-13.96h10.74l-.44.75-14.34,24.28h-7.85l-.14-.23-10.03-16.18h-11.23v16.41h-9.59V10.09h-11.79V1.49h38.11s8.49,13.96,8.49,13.96Z"/>
</svg>