<svg xmlns:xlink="http://www.w3.org/1999/xlink" xmlns="http://www.w3.org/2000/svg" width="120" height="46" viewBox="0 0 120 46" fill="none">
<g clip-path="url(#clip0_273_8471)">
<path d="M98.2188 16.8994L98.1816 29.5723L108.92 16.8838L118.608 16.9131L109.842 27.3027L120 45.3203L110.537 45.292L104.303 33.8965L98.1943 41.1621L89.7305 41.1318L89.8008 16.8291L98.2188 16.8994ZM85.0371 34.3975L85.0166 41.1318L76.5996 41.1064L76.6191 34.3721L85.0371 34.3975ZM57.0537 10.0107C66.7663 10.0394 71.9353 15.4766 71.9111 23.5811C71.8869 31.6855 66.6939 37.0305 56.9814 37.002L53.8623 36.9932L53.8506 41.0391L45.4336 41.0146L45.5039 16.71L53.9219 16.7344L53.8818 30.2588L56.8867 30.2676C62.0128 30.2829 64.3374 27.6711 64.3486 23.6191C64.3619 19.5691 62.046 16.7607 56.9219 16.7451L53.9238 16.7363L53.9434 10.0039L57.0537 10.0107ZM40.793 16.7051L40.7197 41.0098L32.3018 40.9854L32.375 16.6797L40.793 16.7051ZM27.6641 16.7168L27.6426 24.4307L18.2275 24.4062L18.1787 40.9951L9.76074 40.9707L9.81152 24.3818L0 24.3555L0.0224609 16.6416L27.6641 16.7168ZM85.0898 16.8203L85.0439 31.9102L76.626 31.8857L76.6719 16.7949L85.0898 16.8203ZM1.33691 2.27637C1.7097 2.27639 2.19737 2.39376 2.42676 2.72461C2.52598 2.87662 2.63638 2.93602 2.81055 2.94043C2.85691 2.94046 2.95592 2.95188 3.07031 2.94531H9.77246C10.1275 2.94536 10.4186 3.06454 10.6523 3.30273C10.8992 3.55192 11.0234 3.85598 11.0234 4.20215C11.0234 4.54843 10.9018 4.84869 10.6592 5.08691C10.4387 5.30523 10.1695 5.41107 9.80566 5.41113H3.52539C3.22987 5.41334 2.99995 5.50138 2.82129 5.66895C2.65147 5.82553 2.55278 6.08169 2.55273 6.375V12.3027C2.55269 12.6534 2.43545 12.9491 2.19727 13.1895C1.96347 13.4299 1.67878 13.5508 1.33691 13.5508C0.994996 13.5508 0.699212 13.4253 0.452148 13.1738C0.205114 12.9224 0.0791016 12.6243 0.0791016 12.2891V5.27051C0.0791016 5.19992 0.0834788 5.13501 0.0878906 5.07324V3.58691C0.0878906 3.2472 0.134336 2.96661 0.368164 2.7041C0.617425 2.42844 0.964172 2.27637 1.33691 2.27637ZM13.8574 0.015625C14.1971 0.015625 14.4883 0.136772 14.7266 0.383789C14.9559 0.628543 15.077 0.923914 15.0771 1.25684V2.93555H23.1582C23.4955 2.93564 23.7909 3.06171 24.04 3.31738C24.2893 3.56886 24.4111 3.86508 24.4111 4.21582C24.411 4.56638 24.2914 4.86219 24.0488 5.10254C23.7776 5.37134 23.4645 5.40623 23.1934 5.40625H15.0771V10.1426C15.0771 10.4249 15.1661 10.6453 15.3447 10.8174C15.5234 10.985 15.7552 11.0693 16.0596 11.0693H23.2041C23.5635 11.0693 23.8502 11.1882 24.084 11.4307L24.0869 11.4287C24.3426 11.6867 24.457 11.9537 24.457 12.2998C24.457 12.6461 24.3398 12.9419 24.0928 13.1846C23.8524 13.4249 23.5654 13.542 23.2412 13.542L14.8877 13.5508C13.3526 13.5507 12.6027 12.7811 12.6025 11.1953V1.29297C12.6025 0.951051 12.7283 0.646259 12.9775 0.392578C13.2201 0.138957 13.5178 0.0156788 13.8574 0.015625ZM27.4258 0C27.7655 0 28.0572 0.125984 28.291 0.373047C28.5269 0.617866 28.6416 0.911132 28.6416 1.24414L28.6553 10.1406C28.6553 10.4252 28.743 10.6436 28.9238 10.8135C29.1113 10.9833 29.3477 11.0693 29.6543 11.0693H35.5723C35.8657 11.0693 36.1023 10.9833 36.2832 10.8135C36.4618 10.6414 36.5479 10.4251 36.5479 10.1406L36.5342 6.34668C36.5342 6.06232 36.455 5.8373 36.2832 5.66309C36.1067 5.48662 35.8859 5.4004 35.5947 5.40039H30.9355C30.596 5.40033 30.3029 5.27409 30.0537 5.02051C29.8112 4.76693 29.6827 4.46724 29.6826 4.12109C29.6826 3.77476 29.8045 3.47189 30.0449 3.23145C30.3026 2.9806 30.6085 2.9425 30.9014 2.94238L36.7129 2.94922C38.2548 2.96907 39.0068 3.72589 39.0068 5.26562V11.1816C39.0068 12.7522 38.2176 13.5507 36.6582 13.5508L28.5244 13.5469C26.9628 13.5468 26.167 12.7454 26.167 11.1572V1.28125C26.1671 0.937288 26.295 0.635421 26.542 0.381836C26.7889 0.128312 27.0863 9.75766e-05 27.4258 0ZM52.1836 2.94238C52.5122 2.94246 52.8077 3.07767 53.0635 3.33789C53.3127 3.58714 53.4365 3.89838 53.4365 4.24023C53.4364 4.58199 53.3124 4.88172 53.0742 5.12207L53.0723 5.12402C52.8143 5.37979 52.5101 5.41598 52.2168 5.41602H43.8203C43.4455 5.41614 43.2559 5.62526 43.2559 6.0332L43.252 7.70117L43.2383 10.0967L43.2334 12.3027C43.2333 12.6269 43.1083 12.9204 42.8613 13.1807C42.6209 13.4255 42.323 13.5507 41.9834 13.5508C41.6569 13.5508 41.3652 13.4277 41.127 13.1807C40.8866 12.9359 40.7657 12.6357 40.7656 12.3027V8.95801C40.7656 8.47828 40.8145 5.28746 40.8145 5.25879C40.8057 3.75668 41.5644 2.97547 43.082 2.94238H52.1836ZM49.0332 7.48242C49.4126 7.48242 49.7436 7.61061 50.0127 7.85547C50.2927 8.10913 50.4336 8.4312 50.4336 8.81055V8.8125C50.4336 9.18966 50.295 9.51171 50.0127 9.76758C49.7458 10.0146 49.4126 10.1387 49.0332 10.1387H46.6572C46.2735 10.1386 45.9451 10.0146 45.6738 9.76758C45.3937 9.51173 45.252 9.1899 45.252 8.81055C45.252 8.43113 45.3915 8.10915 45.6738 7.85547C45.9451 7.61066 46.2757 7.48247 46.6572 7.48242H49.0332Z" fill="#12F15C"/>
</g>
<defs>
<clipPath id="clip0_273_8471">
<rect width="120" height="45.3208" fill="white"/>
</clipPath>
</defs>
</svg>